<svg width="180" height="198" viewBox="0 0 180 198" fill="none" xmlns="http://www.w3.org/2000/svg">
<path fill-rule="evenodd" clip-rule="evenodd" d="M62.0082 115.01H60.3154C56.2214 115.01 53.7834 115.028 52.0446 115.24C51.6723 115.281 51.3034 115.349 50.9406 115.442C50.8954 115.637 50.8586 115.833 50.8302 116.031C50.6186 117.503 50.6002 119.619 50.6002 123.446V138.773C50.6002 142.591 50.6186 144.717 50.8302 146.189C50.8589 146.383 50.8957 146.577 50.9406 146.768C51.3036 146.86 51.6725 146.928 52.0446 146.971C53.7926 147.191 56.2214 147.201 60.3246 147.201C64.4278 147.201 66.8474 147.191 68.5862 146.971C68.9584 146.928 69.3272 146.86 69.6902 146.768C69.7345 146.576 69.7713 146.383 69.8006 146.189C69.957 145.14 70.0122 143.769 70.0306 141.699C68.4799 141.575 66.9207 141.602 65.3754 141.782H65.3202M65.3202 141.782C63.5276 141.963 61.7353 141.436 60.3263 140.313C58.9173 139.19 58.0034 137.56 57.7799 135.772C57.5564 133.985 58.0411 132.18 59.1304 130.745C60.2196 129.31 61.827 128.358 63.609 128.092H63.6366L63.6918 128.083L63.839 128.065C66.3236 127.798 68.8277 127.764 71.3186 127.963C73.1862 128.129 75.8174 128.543 78.1818 129.785C80.813 131.165 83.8306 134.054 83.8306 138.773V139.178C83.8306 142.435 83.8306 145.581 83.4534 148.176C83.021 151.138 81.9814 154.34 79.1754 156.925C76.443 159.446 73.2046 160.301 70.279 160.669C67.5834 161.001 64.2806 161.001 60.6834 161.001H59.929C56.341 161.001 53.029 161.001 50.3426 160.669C47.4078 160.301 44.1786 159.446 41.4462 156.925C38.6402 154.34 37.6006 151.129 37.1682 148.185C36.791 145.581 36.791 142.435 36.791 139.178V123.032C36.791 119.775 36.791 116.629 37.159 114.035C37.6006 111.081 38.631 107.871 41.4462 105.295C44.1694 102.774 47.4078 101.909 50.3426 101.55C53.029 101.21 56.341 101.21 59.929 101.21H61.5942C64.6026 101.173 69.0094 101.127 72.7262 102.176C75.0814 102.838 77.7126 104.062 79.8562 106.38C82.055 108.763 83.2326 111.753 83.5914 115.047C83.7854 116.867 83.2483 118.689 82.0984 120.114C80.9485 121.538 79.2799 122.447 77.4596 122.641C75.6394 122.835 73.8166 122.298 72.3924 121.148C70.9681 119.998 70.059 118.33 69.865 116.509C69.8466 116.245 69.7908 115.985 69.6994 115.737C69.4736 115.613 69.2322 115.52 68.9818 115.461C67.8393 115.188 66.6696 115.046 65.495 115.037C64.3542 114.991 63.2594 115.001 62.0082 115.01M159.657 101.21H172.5C174.33 101.21 176.085 101.937 177.379 103.231C178.673 104.525 179.4 106.28 179.4 108.11C179.4 109.94 178.673 111.695 177.379 112.989C176.085 114.283 174.33 115.01 172.5 115.01H160.034C155.94 115.01 153.502 115.028 151.763 115.24C151.391 115.281 151.022 115.349 150.659 115.442C150.614 115.637 150.578 115.833 150.549 116.031C150.328 117.503 150.31 119.619 150.31 123.446V124.21H164.183C166.013 124.21 167.768 124.937 169.062 126.231C170.356 127.525 171.083 129.28 171.083 131.11C171.083 132.94 170.356 134.695 169.062 135.989C167.768 137.283 166.013 138.01 164.183 138.01H150.31V154.101C150.31 155.931 149.583 157.686 148.289 158.98C146.995 160.274 145.24 161.001 143.41 161.001C141.58 161.001 139.825 160.274 138.531 158.98C137.237 157.686 136.51 155.931 136.51 154.101V123.032C136.51 119.775 136.51 116.629 136.887 114.035C137.319 111.081 138.359 107.871 141.165 105.295C143.897 102.774 147.136 101.909 150.061 101.55C152.757 101.21 156.06 101.21 159.657 101.21ZM92.0002 108.11C92.0002 106.28 92.7272 104.525 94.0212 103.231C95.3152 101.937 97.0702 101.21 98.9002 101.21H121.9C123.73 101.21 125.485 101.937 126.779 103.231C128.073 104.525 128.8 106.28 128.8 108.11C128.8 109.94 128.073 111.695 126.779 112.989C125.485 114.283 123.73 115.01 121.9 115.01H117.079V147.201H121.9C123.73 147.201 125.485 147.927 126.779 149.221C128.073 150.515 128.8 152.271 128.8 154.101C128.8 155.931 128.073 157.686 126.779 158.98C125.485 160.274 123.73 161.001 121.9 161.001H98.9002C97.0702 161.001 95.3152 160.274 94.0212 158.98C92.7272 157.686 92.0002 155.931 92.0002 154.101C92.0002 152.271 92.7272 150.515 94.0212 149.221C95.3152 147.927 97.0702 147.201 98.9002 147.201H103.279V115.01H98.9002C97.0702 115.01 95.3152 114.283 94.0212 112.989C92.7272 111.695 92.0002 109.94 92.0002 108.11Z" fill="white"/>
<path fill-rule="evenodd" clip-rule="evenodd" d="M43.6448 183.117C52.0168 183.991 62.836 184 77.9884 184H117.3C119.13 184 120.885 184.727 122.179 186.021C123.473 187.315 124.2 189.07 124.2 190.9C124.2 192.73 123.473 194.485 122.179 195.779C120.885 197.073 119.13 197.8 117.3 197.8H77.5928C62.928 197.8 51.3728 197.8 42.2188 196.843C32.8624 195.868 25.1712 193.835 18.5932 189.207C15.0947 186.745 11.9658 183.796 9.3012 180.449C4.2872 174.147 2.07 166.741 1.0212 157.789C5.48363e-07 149.104 0 138.175 0 124.43V100.326C0 86.9032 -5.1409e-07 76.498 0.552 68.0892C1.1132 59.57 2.2632 52.6332 4.7932 46.2484C12.512 26.7996 28.7408 11.6012 49.128 4.4528C61.8148 8.22544e-07 77.372 0 104.659 0H107.99C123.041 0 132.416 2.74181e-07 140.144 2.7048C152.564 7.0656 162.509 16.3392 167.247 28.2992C168.857 32.3472 169.547 36.6528 169.878 41.6668C170.2 46.5704 170.2 52.6056 170.2 60.1864V80.5C170.2 82.33 169.473 84.085 168.179 85.379C166.885 86.673 165.13 87.4 163.3 87.4C161.47 87.4 159.715 86.673 158.421 85.379C157.127 84.085 156.4 82.33 156.4 80.5V60.4256C156.4 52.5504 156.4 46.9752 156.106 42.5776C155.82 38.2536 155.278 35.5488 154.422 33.3776C151.23 25.3368 144.412 18.8416 135.58 15.732C130.355 13.892 123.556 13.8 106.416 13.8C76.8844 13.8 63.8756 13.892 53.7004 17.4708C36.8828 23.368 23.7912 35.788 17.6272 51.336C15.8424 55.8348 14.8396 61.1616 14.3152 69C13.8 76.8936 13.8 86.848 13.8 100.574V123.988C13.8 138.276 13.8 148.387 14.72 156.179C15.6216 163.806 17.3144 168.351 20.0928 171.856C21.9144 174.147 24.0856 176.18 26.5328 177.919C30.3784 180.624 35.3924 182.261 43.6448 183.117Z" fill="white"/>
<path fill-rule="evenodd" clip-rule="evenodd" d="M6.9 105.8C5.07001 105.8 3.31496 105.073 2.02096 103.779C0.726961 102.485 0 100.73 0 98.9C0 88.9375 3.95758 79.3831 11.0021 72.3385C18.0467 65.294 27.6011 61.3364 37.5636 61.3364C39.2748 61.3364 41.0136 61.41 42.642 61.4836L43.2676 61.5112C44.712 61.5756 46.0644 61.64 47.426 61.6676C50.554 61.7412 53.0656 61.5848 55.0804 61.042C56.5097 60.6585 57.8129 59.9057 58.8593 58.8593C59.9057 57.8129 60.6585 56.5097 61.042 55.0804C61.5848 53.0656 61.732 50.554 61.6676 47.426C61.64 46.0736 61.5756 44.712 61.5112 43.2768L61.4836 42.6512C61.3924 40.9568 61.3403 39.2604 61.3272 37.5636C61.3272 32.6299 62.2991 27.7445 64.1874 23.1865C66.0758 18.6285 68.8435 14.4871 72.3326 10.9989C75.8217 7.51065 79.9637 4.74393 84.5222 2.85672C89.0807 0.969512 93.9663 -0.00120722 98.9 1.12673e-06C100.73 1.12673e-06 102.485 0.726964 103.779 2.02096C105.073 3.31497 105.8 5.07001 105.8 6.9C105.8 8.72999 105.073 10.485 103.779 11.779C102.485 13.073 100.73 13.8 98.9 13.8C95.7785 13.7988 92.6874 14.4126 89.8032 15.6063C86.919 16.7999 84.2983 18.5502 82.0907 20.7569C79.883 22.9637 78.1318 25.5838 76.937 28.4675C75.7422 31.3513 75.1272 34.4421 75.1272 37.5636C75.1272 38.916 75.1916 40.3788 75.2652 42.0072L75.2928 42.6144C75.3572 44.0404 75.4308 45.5952 75.4676 47.1408C75.5412 50.6368 75.4308 54.7124 74.3728 58.65C73.3639 62.4218 71.3797 65.8614 68.6197 68.6231C65.8597 71.3847 62.4212 73.3709 58.65 74.382C54.7124 75.4308 50.6276 75.5412 47.1316 75.4676C45.4226 75.4255 43.7142 75.358 42.0072 75.2652C40.5272 75.1886 39.0456 75.1456 37.5636 75.1364C31.2611 75.1364 25.2167 77.6401 20.7602 82.0966C16.3037 86.5531 13.8 92.5975 13.8 98.9C13.8 100.73 13.073 102.485 11.779 103.779C10.485 105.073 8.72999 105.8 6.9 105.8Z" fill="white"/>
</svg>
