<svg width="193" height="193" viewBox="0 0 193 193" fill="none" xmlns="http://www.w3.org/2000/svg">
<path fill-rule="evenodd" clip-rule="evenodd" d="M59.5833 9.16667C46.212 9.16667 33.3883 14.4784 23.9334 23.9334C14.4784 33.3883 9.16667 46.212 9.16667 59.5833V132.917C9.16667 133.494 9.17583 134.081 9.19417 134.658L45.2375 116.637C49.6919 114.41 54.6034 113.251 59.5833 113.251C64.5633 113.251 69.4748 114.41 73.9292 116.637L82.2158 120.771C86.2 122.763 90.6785 123.551 95.1034 123.038C99.5284 122.525 103.708 120.734 107.131 117.883L129.021 99.6417C135.172 94.5151 143.017 91.8738 151.016 92.2368C159.015 92.5998 166.59 95.9408 172.251 101.603L183.333 112.686V91.6667C183.333 90.4511 183.816 89.2853 184.676 88.4258C185.535 87.5662 186.701 87.0833 187.917 87.0833C189.132 87.0833 190.298 87.5662 191.158 88.4258C192.017 89.2853 192.5 90.4511 192.5 91.6667V132.917C192.5 148.719 186.222 163.874 175.048 175.048C163.874 186.222 148.719 192.5 132.917 192.5H59.5833C43.7809 192.5 28.6256 186.222 17.4516 175.048C6.27751 163.874 0 148.719 0 132.917V59.5833C0 43.7809 6.27751 28.6256 17.4516 17.4516C28.6256 6.27751 43.7809 0 59.5833 0H119.167C120.382 0 121.548 0.482885 122.408 1.34243C123.267 2.20197 123.75 3.36776 123.75 4.58333C123.75 5.79891 123.267 6.9647 122.408 7.82424C121.548 8.68378 120.382 9.16667 119.167 9.16667H59.5833ZM59.5833 183.333C48.1849 183.333 37.1228 179.471 28.2002 172.378C19.2777 165.285 13.021 155.379 10.45 144.274L49.335 124.832C52.517 123.241 56.0258 122.412 59.5833 122.412C63.1409 122.412 66.6496 123.241 69.8317 124.832L78.1183 128.975C83.6969 131.763 89.9669 132.864 96.1614 132.144C102.356 131.425 108.207 128.915 112.997 124.923L134.888 106.682C139.281 103.019 144.886 101.132 150.601 101.391C156.315 101.651 161.726 104.038 165.77 108.084L183.333 125.647V132.917C183.333 146.288 178.022 159.112 168.567 168.567C159.112 178.022 146.288 183.333 132.917 183.333H59.5833Z" fill="white"/>
<path fill-rule="evenodd" clip-rule="evenodd" d="M87.0833 55.0026C87.0833 61.0805 84.6689 66.9094 80.3712 71.2071C76.0735 75.5048 70.2445 77.9193 64.1667 77.9193C58.0888 77.9193 52.2598 75.5048 47.9621 71.2071C43.6644 66.9094 41.25 61.0805 41.25 55.0026C41.25 48.9247 43.6644 43.0958 47.9621 38.7981C52.2598 34.5004 58.0888 32.0859 64.1667 32.0859C70.2445 32.0859 76.0735 34.5004 80.3712 38.7981C84.6689 43.0958 87.0833 48.9247 87.0833 55.0026ZM77.9167 55.0026C77.9167 58.6493 76.468 62.1467 73.8894 64.7253C71.3108 67.304 67.8134 68.7526 64.1667 68.7526C60.5199 68.7526 57.0226 67.304 54.4439 64.7253C51.8653 62.1467 50.4167 58.6493 50.4167 55.0026C50.4167 51.3559 51.8653 47.8585 54.4439 45.2799C57.0226 42.7013 60.5199 41.2526 64.1667 41.2526C67.8134 41.2526 71.3108 42.7013 73.8894 45.2799C76.468 47.8585 77.9167 51.3559 77.9167 55.0026Z" fill="white"/>
<path d="M160.417 9.16406C161.632 9.16406 162.798 9.64695 163.658 10.5065C164.517 11.366 165 12.5318 165 13.7474V27.6441L178.778 27.7357C179.993 27.743 181.156 28.2329 182.01 29.0976C182.865 29.9623 183.341 31.131 183.333 32.3466C183.326 33.5621 182.836 34.725 181.972 35.5794C181.107 36.4338 179.938 36.9097 178.723 36.9024L165 36.8107V50.4141C165 51.6296 164.517 52.7954 163.658 53.655C162.798 54.5145 161.632 54.9974 160.417 54.9974C159.201 54.9974 158.035 54.5145 157.176 53.655C156.316 52.7954 155.833 51.6296 155.833 50.4141V36.7557L142.056 36.6641C141.454 36.6605 140.859 36.5383 140.304 36.3047C139.749 36.071 139.246 35.7303 138.823 35.3022C137.969 34.4375 137.493 33.2688 137.5 32.0532C137.507 30.8377 137.997 29.6748 138.862 28.8204C139.727 27.966 140.895 27.4901 142.111 27.4974L155.833 27.5891V13.7474C155.833 12.5318 156.316 11.366 157.176 10.5065C158.035 9.64695 159.201 9.16406 160.417 9.16406Z" fill="white"/>
</svg>
