<svg width="512" height="512" viewBox="0 0 512 512" fill="none" xmlns="http://www.w3.org/2000/svg">
<path d="M256.001 0C153.756 0 70.5742 83.182 70.5742 185.426C70.5742 312.314 236.513 498.593 243.578 506.461C250.214 513.852 261.8 513.839 268.424 506.461C275.489 498.593 441.428 312.314 441.428 185.426C441.426 83.182 358.245 0 256.001 0ZM256.001 278.719C204.559 278.719 162.709 236.868 162.709 185.426C162.709 133.984 204.56 92.134 256.001 92.134C307.442 92.134 349.292 133.985 349.292 185.427C349.292 236.869 307.442 278.719 256.001 278.719Z" fill="white"/>
</svg>
