<svg width="512" height="512" viewBox="0 0 512 512" fill="none" xmlns="http://www.w3.org/2000/svg">
<g clip-path="url(#clip0_4097_39)">
<path d="M384 0H128C57.4171 0 0 57.4171 0 128V384C0 454.583 57.4171 512 128 512H384C454.583 512 512 454.583 512 384V128C512 57.4171 454.583 0 384 0ZM347.429 274.286H274.286V347.429C274.286 357.486 266.057 365.714 256 365.714C245.943 365.714 237.714 357.486 237.714 347.429V274.286H164.571C154.514 274.286 146.286 266.057 146.286 256C146.286 245.943 154.514 237.714 164.571 237.714H237.714V164.571C237.714 154.514 245.943 146.286 256 146.286C266.057 146.286 274.286 154.514 274.286 164.571V237.714H347.429C357.486 237.714 365.714 245.943 365.714 256C365.714 266.057 357.486 274.286 347.429 274.286Z" fill="white"/>
</g>
<defs>
<clipPath id="clip0_4097_39">
<rect width="512" height="512" fill="white"/>
</clipPath>
</defs>
</svg>
