<svg width="512" height="512" viewBox="0 0 512 512" fill="none" xmlns="http://www.w3.org/2000/svg">
<g clip-path="url(#clip0_4097_43)">
<path d="M347.428 237.718H274.285V164.575C274.285 159.725 272.359 155.074 268.929 151.645C265.5 148.216 260.849 146.289 255.999 146.289C251.15 146.289 246.499 148.216 243.069 151.645C239.64 155.074 237.714 159.725 237.714 164.575V237.718H164.571C159.721 237.718 155.07 239.644 151.641 243.073C148.212 246.503 146.285 251.154 146.285 256.003C146.285 260.853 148.212 265.504 151.641 268.933C155.07 272.363 159.721 274.289 164.571 274.289H237.714V347.432C237.714 352.282 239.64 356.933 243.069 360.362C246.499 363.791 251.15 365.718 255.999 365.718C260.849 365.718 265.5 363.791 268.929 360.362C272.359 356.933 274.285 352.282 274.285 347.432V274.289H347.428C352.278 274.289 356.929 272.363 360.358 268.933C363.787 265.504 365.714 260.853 365.714 256.003C365.714 251.154 363.787 246.503 360.358 243.073C356.929 239.644 352.278 237.718 347.428 237.718Z" fill="white"/>
<path d="M384 0H128C57.4171 0 0 57.4171 0 128V384C0 454.583 57.4171 512 128 512H384C454.583 512 512 454.583 512 384V128C512 57.4171 454.583 0 384 0ZM475.429 384C475.429 434.414 434.414 475.429 384 475.429H128C77.5863 475.429 36.5714 434.414 36.5714 384V128C36.5714 77.5863 77.5863 36.5714 128 36.5714H384C434.414 36.5714 475.429 77.5863 475.429 128V384Z" fill="white"/>
</g>
<defs>
<clipPath id="clip0_4097_43">
<rect width="512" height="512" fill="white"/>
</clipPath>
</defs>
</svg>
