<svg width="200" height="200" viewBox="0 0 200 200" fill="none" xmlns="http://www.w3.org/2000/svg">
<g clip-path="url(#clip0_2027_1383)">
<path d="M188.008 88.0058L110.229 88.241V11.9921C110.232 10.4163 109.924 8.85539 109.323 7.39892C108.721 5.94245 107.838 4.61911 106.724 3.50488C105.609 2.39064 104.286 1.50744 102.83 0.905981C101.373 0.304522 99.8123 -0.00335393 98.2365 2.75551e-05C96.6607 -0.00335393 95.0998 0.304522 93.6433 0.905981C92.1869 1.50744 90.8635 2.39064 89.7493 3.50488C88.635 4.61911 87.7519 5.94245 87.1504 7.39892C86.5489 8.85539 86.2411 10.4163 86.2444 11.9921L86.4796 88.008H11.9921C10.4163 88.0046 8.85539 88.3125 7.39892 88.9139C5.94245 89.5154 4.61911 90.3986 3.50488 91.5128C2.39064 92.6271 1.50744 93.9504 0.905981 95.4069C0.304522 96.8633 -0.00335392 98.4243 2.75703e-05 100C-0.00335494 101.576 0.304535 103.137 0.906021 104.593C1.50751 106.049 2.39074 107.372 3.505 108.486C4.61927 109.601 5.94262 110.484 7.39908 111.085C8.85554 111.686 10.4164 111.994 11.9921 111.99H86.362V188.008C86.3589 189.584 86.667 191.144 87.2685 192.601C87.8701 194.057 88.7533 195.38 89.8675 196.495C90.9817 197.609 92.3049 198.492 93.7612 199.094C95.2176 199.695 96.7784 200.003 98.3541 200C99.9297 200.003 101.491 199.695 102.947 199.094C104.403 198.492 105.726 197.609 106.841 196.495C107.955 195.38 108.838 194.057 109.44 192.601C110.041 191.144 110.349 189.584 110.346 188.008V111.992H188.008C189.584 111.995 191.144 111.687 192.601 111.086C194.057 110.484 195.38 109.601 196.495 108.487C197.609 107.372 198.492 106.049 199.094 104.593C199.695 103.137 200.003 101.576 200 100C199.997 96.8202 198.733 93.7714 196.485 91.5227C194.236 89.2741 191.188 88.0092 188.008 88.0058Z" fill="white"/>
</g>
<defs>
<clipPath id="clip0_2027_1383">
<rect width="200" height="200" fill="white"/>
</clipPath>
</defs>
</svg>
