<svg width="512" height="512" viewBox="0 0 512 512" fill="none" xmlns="http://www.w3.org/2000/svg">
<g clip-path="url(#clip0_4023_2)">
<path d="M340.449 245.992L234.134 168.709C232.224 167.317 229.966 166.48 227.609 166.291C225.253 166.102 222.891 166.569 220.783 167.639C218.676 168.71 216.906 170.342 215.669 172.356C214.431 174.37 213.776 176.687 213.773 179.051V333.566C213.766 335.933 214.417 338.256 215.653 340.275C216.888 342.295 218.661 343.931 220.772 345.002C222.884 346.072 225.251 346.535 227.61 346.339C229.97 346.143 232.228 345.295 234.134 343.891L340.449 266.676C342.092 265.498 343.43 263.945 344.353 262.147C345.276 260.348 345.758 258.356 345.758 256.334C345.758 254.312 345.276 252.32 344.353 250.522C343.43 248.723 342.092 247.17 340.449 245.992Z" fill="white"/>
<path d="M256.009 0.0351562C114.596 0.0351562 0 114.631 0 256.044C0 397.405 114.596 511.967 256.009 511.967C397.387 511.967 512 397.388 512 256.044C512.017 114.631 397.387 0.0351562 256.009 0.0351562ZM256.009 469.253C138.244 469.253 42.7646 373.825 42.7646 256.044C42.7646 138.313 138.244 42.7657 256.009 42.7657C373.756 42.7657 469.218 138.296 469.218 256.044C469.235 373.825 373.756 469.253 256.009 469.253Z" fill="white"/>
</g>
<defs>
<clipPath id="clip0_4023_2">
<rect width="512" height="512" fill="white"/>
</clipPath>
</defs>
</svg>
