<svg width="292" height="285" viewBox="0 0 292 285" fill="none" xmlns="http://www.w3.org/2000/svg">
<path d="M287.129 150.021C271.445 99.5595 221.665 65.1229 161.997 64.1V5.11436C161.997 2.3867 159.611 0 156.883 0C155.86 0 154.837 0.340957 153.814 1.02287L2.08836 110.811C-0.298338 112.516 -0.639295 115.585 1.06549 117.971L2.08836 118.994L153.814 228.1C156.201 229.805 159.27 229.123 160.974 227.078C161.656 226.055 161.997 225.032 161.997 224.009V165.364C198.821 165.364 229.848 182.753 240.758 209.007C249.964 231.51 242.463 255.718 220.642 275.835C218.596 277.88 218.255 280.949 220.301 282.995C221.324 284.017 222.688 284.699 224.052 284.699H228.143C229.166 284.699 230.189 284.358 230.871 283.677C280.991 250.604 302.472 199.119 287.129 150.021Z" fill="white"/>
</svg>
