<svg width="265" height="265" viewBox="0 0 265 265" fill="none" xmlns="http://www.w3.org/2000/svg">
<path d="M250.958 264.167C246.996 264.167 244.354 262.846 241.713 260.204L3.9625 22.4542C-1.32083 17.1708 -1.32083 9.24583 3.9625 3.9625C9.24583 -1.32083 17.1708 -1.32083 22.4542 3.9625L260.204 241.713C265.488 246.996 265.488 254.921 260.204 260.204C257.563 262.846 254.921 264.167 250.958 264.167Z" fill="black"/>
<path d="M13.2083 264.167C9.24583 264.167 6.60417 262.846 3.9625 260.204C-1.32083 254.921 -1.32083 246.996 3.9625 241.713L241.713 3.9625C246.996 -1.32083 254.921 -1.32083 260.204 3.9625C265.488 9.24583 265.488 17.1708 260.204 22.4542L22.4542 260.204C19.8125 262.846 17.1708 264.167 13.2083 264.167Z" fill="black"/>
</svg>
