<svg width="116" height="116" viewBox="0 0 116 116" fill="none" xmlns="http://www.w3.org/2000/svg">
<path d="M57.7513 0.000101733C47.7151 -0.0147461 37.8488 2.58998 29.1278 7.55678C20.4067 12.5236 13.133 19.6805 8.02558 28.3199C2.91816 36.9593 0.153966 46.7822 0.00624803 56.8173C-0.14147 66.8524 2.33241 76.7523 7.18331 85.5383L0.221815 108.743C-0.0130387 109.527 -0.0614025 110.355 0.0805845 111.161C0.222571 111.967 0.550977 112.728 1.03959 113.385C1.5282 114.041 2.16349 114.574 2.89476 114.942C3.62602 115.309 4.43301 115.5 5.25131 115.5C5.76327 115.499 6.27246 115.425 6.76331 115.28L29.9683 108.318C37.6871 112.575 46.278 115.009 55.0829 115.433C63.8877 115.857 72.6727 114.26 80.7648 110.763C88.8568 107.267 96.0411 101.965 101.767 95.2628C107.493 88.5607 111.609 80.6367 113.799 72.0981C115.989 63.5595 116.195 54.6328 114.402 46.0021C112.609 37.3714 108.864 29.2657 103.454 22.3062C98.0434 15.3467 91.1118 9.71809 83.19 5.85164C75.2682 1.9852 66.5663 -0.0164429 57.7513 0.000101733ZM57.7513 105C49.1434 104.989 40.7034 102.617 33.3493 98.1436C32.5265 97.6491 31.5846 97.3878 30.6246 97.3876C30.1141 97.3854 29.6062 97.4597 29.1178 97.6081L13.0843 102.422L17.8933 86.3836C18.1021 85.6854 18.1632 84.9514 18.0728 84.2283C17.9824 83.5053 17.7425 82.8089 17.3683 82.1836C11.9779 73.2513 9.69821 62.785 10.8854 52.42C12.0726 42.055 16.6599 32.3753 23.9304 24.8931C31.2009 17.411 40.7452 12.5481 51.0718 11.0641C61.3985 9.58016 71.9259 11.5588 81.0091 16.6908C90.0923 21.8228 97.2197 29.8192 101.278 39.4305C105.335 49.0417 106.095 59.7264 103.438 69.8152C100.781 79.9039 94.8568 88.8283 86.5912 95.194C78.3256 101.56 68.1841 105.008 57.7513 105Z" fill="white"/>
</svg>
