<svg width="322" height="231" viewBox="0 0 322 231" fill="none" xmlns="http://www.w3.org/2000/svg">
<path fill-rule="evenodd" clip-rule="evenodd" d="M315.696 5.88013C319.461 9.64631 321.576 14.7537 321.576 20.079C321.576 25.4044 319.461 30.5118 315.696 34.278L124.904 225.07C121.138 228.835 116.03 230.95 110.705 230.95C105.38 230.95 100.272 228.835 96.5062 225.07L6.13121 134.695C4.21305 132.842 2.68305 130.626 1.6305 128.176C0.577955 125.725 0.0239308 123.09 0.000758287 120.423C-0.0224142 117.757 0.485724 115.112 1.49553 112.644C2.50534 110.176 3.99659 107.934 5.88227 106.048C7.76795 104.162 10.0103 102.671 12.4785 101.661C14.9466 100.651 17.5912 100.143 20.2578 100.166C22.9245 100.19 25.5598 100.744 28.0101 101.796C30.4603 102.849 32.6764 104.379 34.529 106.297L110.705 182.473L287.298 5.88013C291.064 2.11509 296.171 0 301.497 0C306.822 0 311.93 2.11509 315.696 5.88013Z" fill="black"/>
</svg>
