<svg width="512" height="512" viewBox="0 0 512 512" fill="none" xmlns="http://www.w3.org/2000/svg">
<path d="M62.205 150L88.774 470.735C90.678 493.865 110.38 512 133.598 512H378.403C401.621 512 421.323 493.865 423.227 470.735L449.795 150H62.205ZM180.986 452C173.134 452 166.528 445.892 166.03 437.937L151.03 195.937C150.517 187.661 156.801 180.542 165.063 180.029C173.632 179.428 180.444 185.786 180.971 194.062L195.971 436.062C196.502 444.632 189.721 452 180.986 452ZM271 437C271 445.291 264.291 452 256 452C247.709 452 241 445.291 241 437V195C241 186.709 247.709 180 256 180C264.291 180 271 186.709 271 195V437ZM360.97 195.938L345.97 437.938C345.477 445.812 338.914 452.374 330.062 451.971C321.8 451.458 315.516 444.339 316.029 436.063L331.029 194.063C331.542 185.787 338.793 179.766 346.937 180.03C355.199 180.543 361.483 187.662 360.97 195.938ZM451 60H361V45C361 20.186 340.814 0 316 0H196C171.186 0 151 20.186 151 45V60H61C44.431 60 31 73.431 31 90C31 106.567 44.431 120 61 120H451C467.569 120 481 106.567 481 90C481 73.431 467.569 60 451 60ZM331 60H181V45C181 36.724 187.724 30 196 30H316C324.276 30 331 36.724 331 45V60Z" fill="white"/>
</svg>
