<svg width="512" height="511" viewBox="0 0 512 511" fill="none" xmlns="http://www.w3.org/2000/svg">
<path d="M405.332 255.984C393.535 255.984 384 265.543 384 277.316V447.984C384 459.738 374.441 469.316 362.668 469.316H64C52.223 469.316 42.668 459.738 42.668 447.984V149.316C42.668 137.562 52.223 127.984 64 127.984H234.668C246.465 127.984 256 118.426 256 106.652C256 94.8754 246.465 85.3164 234.668 85.3164H64C28.715 85.3164 0 114.031 0 149.316V447.984C0 483.27 28.715 511.984 64 511.984H362.668C397.953 511.984 426.668 483.27 426.668 447.984V277.316C426.668 265.52 417.128 255.984 405.332 255.984Z" fill="white"/>
<path d="M200.02 236.549C198.538 238.038 197.522 239.928 197.098 241.987L182.016 317.425C181.313 320.921 182.422 324.526 184.938 327.065C185.931 328.055 187.109 328.839 188.405 329.373C189.702 329.908 191.09 330.181 192.492 330.179C193.172 330.179 193.879 330.116 194.582 329.968L269.996 314.886C272.086 314.456 273.984 313.456 275.457 311.96L444.247 143.17L368.832 67.7598L200.02 236.549ZM496.383 15.6007C475.586 -5.20025 441.75 -5.20025 420.969 15.6007L391.445 45.1238L466.859 120.538L496.383 91.0107C506.453 80.9637 512 67.5648 512 53.3148C512 39.0648 506.453 25.6667 496.383 15.6007Z" fill="white"/>
</svg>
