<svg width="512" height="512" viewBox="0 0 512 512" fill="none" xmlns="http://www.w3.org/2000/svg">
<g clip-path="url(#clip0_4005_2)">
<path d="M120 256C120 230.633 126.989 206.87 139.131 186.523V100.215H52.823C18.568 144.703 0 198.922 0 256C0 313.078 18.568 367.297 52.823 411.785H139.131V325.477C126.989 305.13 120 281.367 120 256Z" fill="#FBBD00"/>
<path d="M256 392L196 452L256 512C313.079 512 367.297 493.432 411.785 459.177V372.961H325.569C305.044 385.147 281.181 392 256 392Z" fill="#0F9D58"/>
<path d="M139.132 325.477L52.8242 411.785C59.6589 420.665 67.0603 429.094 74.9822 437.02C123.334 485.371 187.621 512 256.001 512V392C206.377 392 162.884 365.28 139.132 325.477Z" fill="#31AA52"/>
<path d="M512 256C512.002 240.447 510.599 224.924 507.808 209.623L505.557 197.324H256V317.324H377.452C365.831 340.448 347.825 359.756 325.568 372.962L411.784 459.178C420.664 452.344 429.093 444.942 437.019 437.02C485.371 388.667 512 324.38 512 256Z" fill="#3C79E6"/>
<path d="M352.167 159.833L362.773 170.439L447.626 85.587L437.02 74.981C388.668 26.629 324.381 0 256 0L196 60L256 120C292.326 120 326.479 134.146 352.167 159.833Z" fill="#CF2D48"/>
<path d="M255.998 120V0C187.618 0 123.331 26.629 74.9783 74.98C67.0559 82.9051 59.6545 91.3344 52.8203 100.215L139.128 186.523C162.881 146.72 206.374 120 255.998 120Z" fill="#EB4132"/>
</g>
<defs>
<clipPath id="clip0_4005_2">
<rect width="512" height="512" fill="white"/>
</clipPath>
</defs>
</svg>
