<svg width="250" height="250" viewBox="0 0 250 250" fill="none" xmlns="http://www.w3.org/2000/svg">
<path d="M243.259 108.738L243.242 108.721L141.262 6.74463C136.915 2.39502 131.136 0 124.989 0C118.841 0 113.062 2.39355 108.714 6.74268L6.78627 108.667C6.75209 108.701 6.71791 108.737 6.68373 108.772C-2.24302 117.75 -2.2274 132.316 6.72768 141.271C10.8185 145.364 16.2223 147.735 21.9997 147.983C22.234 148.006 22.4708 148.017 22.7091 148.017H26.7736V223.066C26.7736 237.917 38.8566 250 53.7111 250H93.6085C97.6525 250 100.933 246.721 100.933 242.676V183.838C100.933 177.061 106.445 171.549 113.222 171.549H136.755C143.532 171.549 149.044 177.062 149.044 183.838V242.676C149.044 246.721 152.323 250 156.368 250H196.266C211.121 250 223.204 237.917 223.204 223.066V148.018H226.973C233.118 148.018 238.898 145.624 243.248 141.275C252.213 132.305 252.216 117.714 243.259 108.738Z" fill="white"/>
</svg>
