<svg width="257" height="257" viewBox="0 0 257 257" fill="none" xmlns="http://www.w3.org/2000/svg">
<g clip-path="url(#clip0_4097_31)">
<path d="M250.573 111.782C250.565 111.777 250.559 111.769 250.553 111.763L145.718 6.93197C141.249 2.46057 135.308 0 128.989 0C122.669 0 116.728 2.46057 112.258 6.93147L7.47629 111.71C7.44115 111.745 7.40401 111.782 7.37088 111.818C-1.80583 121.046 -1.78977 136.021 7.41605 145.227C11.6214 149.434 17.174 151.87 23.1136 152.126C23.3566 152.15 23.6 152.162 23.845 152.162H28.0212V229.31C28.0212 244.578 40.4446 256.999 55.713 256.999H96.7281C100.887 256.999 104.257 253.627 104.257 249.47V188.985C104.257 182.019 109.926 176.352 116.893 176.352H141.084C148.051 176.352 153.717 182.019 153.717 188.985V249.471C153.717 253.627 157.088 257 161.247 257H202.262C217.532 257 229.953 244.579 229.953 229.31V152.162H233.828C240.146 152.162 246.087 149.701 250.559 145.229C259.775 136.009 259.779 121.007 250.573 111.782L250.573 111.782ZM239.91 134.582C239.113 135.384 238.166 136.019 237.122 136.452C236.078 136.885 234.958 137.107 233.828 137.104H222.424C218.265 137.104 214.894 140.474 214.894 144.633V229.31C214.894 236.275 209.228 241.941 202.261 241.941H168.776V188.985C168.776 173.717 156.354 161.294 141.084 161.294H116.893C101.623 161.294 89.1993 173.717 89.1993 188.985V241.941H55.714C48.7489 241.941 43.0803 236.274 43.0803 229.31V144.633C43.0803 140.474 39.7097 137.103 35.551 137.103H24.3429C24.2254 137.095 24.1078 137.09 23.99 137.087C21.7468 137.048 19.6431 136.158 18.067 134.58C14.714 131.227 14.714 125.77 18.067 122.415C18.0685 122.415 18.0685 122.413 18.0705 122.411L18.0765 122.405L122.908 17.5784C123.704 16.7768 124.652 16.1413 125.696 15.7087C126.739 15.2762 127.859 15.0552 128.989 15.0586C131.285 15.0586 133.443 15.9526 135.069 17.5784L239.877 122.384L239.926 122.431C243.261 125.79 243.255 131.236 239.91 134.582Z" fill="white"/>
</g>
<defs>
<clipPath id="clip0_4097_31">
<rect width="257" height="257" fill="white"/>
</clipPath>
</defs>
</svg>
