<svg width="144" height="144" viewBox="0 0 144 144" fill="none" xmlns="http://www.w3.org/2000/svg">
<g clip-path="url(#clip0_2155_459)">
<path d="M81.6223 101.457C80.15 101.595 78.6722 101.262 77.4004 100.508C76.9417 100.037 76.5947 99.4693 76.3851 98.8461C76.1755 98.223 76.1087 97.5607 76.1896 96.9083C76.2239 95.8079 76.3553 94.7128 76.5822 93.6356C76.8019 92.3998 77.0857 91.1764 77.433 89.9701L81.2949 76.6827C81.6932 75.3711 81.9564 74.0223 82.0804 72.6572C82.0804 71.1846 82.2767 70.1698 82.2767 69.5809C82.3173 68.2851 82.0646 66.997 81.5375 65.8126C81.0105 64.6282 80.2227 63.5782 79.233 62.7409C76.7667 60.8475 73.6955 59.9168 70.593 60.1227C68.3697 60.1562 66.1637 60.5201 64.0475 61.2027C61.7348 61.9227 59.302 62.7845 56.7493 63.7883L55.6367 68.1083C56.3893 67.8464 57.3059 67.5519 58.353 67.2246C59.352 66.9286 60.3875 66.7744 61.4293 66.7664C62.8908 66.608 64.3615 66.967 65.5857 67.7809C65.9971 68.2718 66.3049 68.841 66.4905 69.4541C66.6761 70.0672 66.7357 70.7115 66.6657 71.3483C66.662 72.4488 66.5413 73.5459 66.3057 74.6209C66.0764 75.7664 65.782 76.9772 65.422 78.2535L61.5275 91.6061C61.2136 92.8473 60.9624 94.1034 60.7749 95.3698C60.6219 96.454 60.5453 97.5475 60.5457 98.6424C60.5378 99.9465 60.8286 101.235 61.3959 102.409C61.9632 103.584 62.7918 104.612 63.8183 105.417C66.3226 107.34 69.4375 108.293 72.5891 108.101C74.8083 108.146 77.0198 107.825 79.1346 107.151C80.9892 106.519 83.4656 105.613 86.5638 104.435L87.6112 100.311C86.7719 100.66 85.9077 100.944 85.0257 101.162C83.9102 101.417 82.7649 101.516 81.6223 101.457ZM85.713 38.4575C83.9319 36.8217 81.585 35.9417 79.1675 36.003C76.7511 35.9485 74.4067 36.8276 72.622 38.4575C69.3505 41.2784 68.9851 46.2174 71.8063 49.4892C72.0577 49.7808 72.3304 50.0535 72.622 50.3048C76.3491 53.6385 81.9859 53.6385 85.7128 50.3048C88.9843 47.4561 89.3271 42.4948 86.4783 39.2233C86.2413 38.9506 85.9855 38.6947 85.713 38.4575Z" fill="white"/>
<path d="M72 0C32.2355 0 0 32.2355 0 72C0 111.765 32.2355 144 72 144C111.765 144 144 111.765 144 72C144 32.2355 111.765 0 72 0ZM72 137.454C35.8504 137.454 6.54553 108.15 6.54553 72C6.54553 35.8504 35.8504 6.54553 72 6.54553C108.15 6.54553 137.454 35.8504 137.454 72C137.454 108.15 108.15 137.454 72 137.454Z" fill="white"/>
</g>
<defs>
<clipPath id="clip0_2155_459">
<rect width="144" height="144" fill="white"/>
</clipPath>
</defs>
</svg>
