<svg width="113" height="110" viewBox="0 0 113 110" fill="none" xmlns="http://www.w3.org/2000/svg">
<path d="M56.5 109.431C54.8911 109.431 53.3404 108.796 52.1316 107.644C47.5666 103.299 43.1656 99.2158 39.2825 95.6142L39.2626 95.5955C27.8783 85.0355 18.0476 75.916 11.2075 66.9324C3.56149 56.8899 0 47.3675 0 36.9651C0 26.8584 3.18386 17.5342 8.9643 10.7092C14.8138 3.80339 22.8401 0 31.5674 0C38.0903 0 44.0638 2.24475 49.3221 6.67131C51.9756 8.90549 54.3808 11.6401 56.5 14.8297C58.6199 11.6401 61.0244 8.90549 63.6788 6.67131C68.9371 2.24475 74.9106 0 81.4335 0C90.1599 0 98.1871 3.80339 104.037 10.7092C109.817 17.5342 113 26.8584 113 36.9651C113 47.3672 109.439 56.8897 101.793 66.9315C94.9531 75.916 85.1232 85.0346 73.7407 95.5936C69.8508 99.2009 65.4429 103.29 60.8675 107.646C59.6583 108.797 58.1064 109.431 56.5 109.431ZM31.5674 7.20511C24.711 7.20511 18.4124 10.1838 13.8301 15.5927C9.17993 21.0834 6.61845 28.6734 6.61845 36.9651C6.61845 45.714 9.60566 53.5384 16.3036 62.3353C22.7772 70.8381 32.4063 79.7701 43.5553 90.1124L43.5758 90.1311C47.4735 93.7467 51.8919 97.8458 56.4905 102.223C61.1167 97.8374 65.542 93.7318 69.4473 90.1105C80.5955 79.7681 90.2237 70.8381 96.6973 62.3353C103.394 53.5384 106.382 45.714 106.382 36.9651C106.382 28.6732 103.82 21.0832 99.1699 15.5927C94.5885 10.1838 88.2892 7.20511 81.4335 7.20511C76.4107 7.20511 71.7991 8.9432 67.7274 12.3701C64.0988 15.4257 61.5711 19.2882 60.0889 21.9908C59.327 23.3806 57.9856 24.2101 56.5 24.2101C55.0144 24.2101 53.673 23.3806 52.9109 21.9908C51.43 19.2882 48.9021 15.4257 45.2724 12.3701C41.2009 8.9432 36.5893 7.20511 31.5674 7.20511Z" fill="white"/>
</svg>
