<svg width="113" height="110" viewBox="0 0 113 110" fill="none" xmlns="http://www.w3.org/2000/svg">
<path d="M106.479 13.8108C102.433 7.56123 96.7173 3.09192 90.2508 1.12086C83.7842 -0.850203 76.9419 -0.208598 70.8228 2.9426C65.3461 5.72122 60.4615 10.4059 56.5 16.6229C52.5385 10.3907 47.6539 5.70602 42.1772 2.9426C36.0581 -0.208598 29.2157 -0.850203 22.7492 1.12086C16.2827 3.09192 10.5674 7.56123 6.52142 13.8108C2.25483 20.3834 0 28.5977 0 37.5628C0 50.4648 6.54469 64.6193 19.4505 79.6494C29.967 91.8917 42.3944 101.918 48.8641 106.803C51.1437 108.518 53.7935 109.43 56.5 109.43C59.2065 109.43 61.8563 108.518 64.1359 106.803C70.6004 101.918 83.033 91.8917 93.5495 79.6494C106.455 64.6254 113 50.4648 113 37.5628C113 28.5977 110.745 20.3834 106.479 13.8108Z" fill="#FF0000"/>
</svg>
