<svg width="808" height="601" viewBox="0 0 808 601" fill="none" xmlns="http://www.w3.org/2000/svg">
<g clip-path="url(#clip0_4085_47)">
<path d="M347.607 127.05L104.867 274.717L34.2574 286.551C8.16789 290.923 -9.52104 315.735 -5.14867 341.824L4.54813 399.684C8.70189 424.469 31.0623 438.502 58.9401 433.83L76.8241 430.833L118.34 561.361C119.507 565.03 121.957 568.155 125.242 570.163C128.527 572.171 132.425 572.928 136.223 572.294L199.342 561.716C201.561 561.336 203.675 560.494 205.547 559.245C207.419 557.996 209.008 556.368 210.21 554.465C211.413 552.563 212.202 550.429 212.527 548.202C212.853 545.975 212.706 543.705 212.097 541.538L181.186 433.243L407.149 482.459C409.707 483.009 412.36 482.927 414.88 482.223C417.4 481.518 419.71 480.21 421.612 478.413C423.503 476.609 424.923 474.369 425.748 471.889C426.573 469.409 426.778 466.765 426.345 464.187L371.69 138.069C371.256 135.492 370.198 133.061 368.608 130.988C367.018 128.915 364.945 127.263 362.569 126.176C360.193 125.089 357.587 124.6 354.979 124.753C352.371 124.905 349.84 125.694 347.607 127.05Z" fill="white"/>
</g>
<g clip-path="url(#clip1_4085_47)">
<path d="M490.776 102.917L507.346 109.92C594.281 146.659 635.611 248.487 598.872 335.422L591.87 351.992C589.936 356.568 592.077 361.844 596.653 363.778L613.223 370.78C617.799 372.714 623.075 370.572 625.009 365.996L632.011 349.427C676.484 244.189 626.588 121.254 521.35 76.7807L504.781 69.7785C500.205 67.8447 494.929 69.9861 492.995 74.5621L485.993 91.1315C484.059 95.7074 486.2 100.984 490.776 102.917Z" fill="white"/>
<path d="M549.358 10.5034L532.789 3.50113C528.213 1.56734 522.937 3.7088 521.003 8.28473L514.001 24.8542C512.067 29.4301 514.208 34.7062 518.784 36.64L535.354 43.6423C658.893 95.8502 717.356 239.892 665.149 363.432L658.146 380.001C656.212 384.577 658.354 389.853 662.93 391.787L679.499 398.789C684.075 400.723 689.351 398.582 691.285 394.006L698.287 377.436C758.23 235.595 691.199 70.4455 549.358 10.5034Z" fill="white"/>
</g>
<path d="M527.672 221.635C522.425 212.975 516.59 205.479 513.578 201.782C513.378 201.538 513.127 201.341 512.843 201.205C512.558 201.07 512.246 201 511.931 201C511.616 201 511.305 201.07 511.02 201.206C510.735 201.341 510.484 201.538 510.285 201.782C507.273 205.481 501.437 212.979 496.19 221.64C489.429 232.802 486 242.031 486 249.069C486 263.367 497.633 275 511.931 275C526.23 275 537.862 263.367 537.862 249.069C537.862 242.026 534.434 232.796 527.672 221.635ZM515.49 265.449C513.963 265.838 512.393 266.034 510.817 266.032C501.129 266.032 493.248 258.711 493.248 249.711C493.248 247.538 493.821 245 494.951 242.166C495.142 241.688 495.686 241.415 496.222 241.53C496.758 241.646 497.118 242.113 497.063 242.621C496.998 243.207 496.965 243.795 496.963 244.385C496.963 254.178 504.855 262.38 515.32 263.461C515.841 263.515 516.247 263.904 516.289 264.39C516.33 264.875 515.995 265.32 515.49 265.449Z" fill="white"/>
<g clip-path="url(#clip2_4085_47)">
<path d="M550.101 346.937C549.916 346.757 549.687 346.629 549.436 346.567C549.186 346.504 548.924 346.509 548.676 346.581L530.332 351.917L526.572 327.525C526.514 327.201 526.348 326.906 526.102 326.687C525.855 326.469 525.542 326.34 525.214 326.321C524.885 326.302 524.559 326.394 524.289 326.583C524.019 326.771 523.821 327.045 523.725 327.36L512.786 372.932C512.717 373.182 512.716 373.446 512.783 373.697C512.851 373.947 512.983 374.176 513.168 374.358C513.353 374.54 513.583 374.669 513.834 374.733C514.086 374.796 514.35 374.792 514.599 374.719L532.669 369.463L537.077 393.705C537.144 394.026 537.317 394.314 537.567 394.525C537.817 394.736 538.131 394.858 538.458 394.87C538.785 394.882 539.107 394.785 539.372 394.593C539.637 394.402 539.831 394.127 539.922 393.812L550.494 348.352C550.56 348.102 550.558 347.84 550.488 347.591C550.419 347.343 550.286 347.117 550.101 346.937Z" fill="white"/>
</g>
<g clip-path="url(#clip3_4085_47)">
<path d="M575.132 449.941L552.962 438.536C551.927 438 550.795 437.673 549.633 437.576C548.47 437.478 547.3 437.611 546.189 437.967C545.079 438.323 544.049 438.895 543.161 439.651C542.272 440.406 541.541 441.33 541.01 442.369L516.651 489.72C514.4 494.097 516.179 499.458 520.483 501.672L542.653 513.077C543.688 513.613 544.82 513.94 545.982 514.038C547.145 514.135 548.315 514.002 549.426 513.646C550.536 513.29 551.566 512.718 552.454 511.962C553.343 511.207 554.074 510.283 554.605 509.245L578.964 461.893C579.5 460.857 579.827 459.726 579.925 458.563C580.022 457.401 579.889 456.231 579.533 455.12C579.177 454.009 578.605 452.98 577.849 452.091C577.094 451.202 576.17 450.472 575.132 449.941ZM534.224 502.299C532.216 501.266 531.449 498.875 532.483 496.866C533.516 494.858 535.906 494.091 537.915 495.125C539.924 496.158 540.69 498.548 539.657 500.557C538.624 502.566 536.233 503.332 534.224 502.299ZM555.225 499.22L524.446 483.387L543.232 446.869L574.011 462.702L555.225 499.22Z" fill="white"/>
</g>
<defs>
<clipPath id="clip0_4085_47">
<rect width="512" height="512" fill="white" transform="translate(0 89)"/>
</clipPath>
<clipPath id="clip1_4085_47">
<rect width="307" height="307" fill="white" transform="translate(524.504) rotate(22.9089)"/>
</clipPath>
<clipPath id="clip2_4085_47">
<rect width="70" height="70" fill="white" transform="translate(484 347.234) rotate(-29.2782)"/>
</clipPath>
<clipPath id="clip3_4085_47">
<rect width="71" height="71" fill="white" transform="translate(532.48 428) rotate(27.2226)"/>
</clipPath>
</defs>
</svg>
