<svg width="965" height="772" viewBox="0 0 965 772" fill="none" xmlns="http://www.w3.org/2000/svg">
<g clip-path="url(#clip0_4180_26)">
<path d="M504.607 131.05L261.867 278.717L191.257 290.551C165.168 294.923 147.479 319.735 151.851 345.824L161.548 403.684C165.702 428.469 188.062 442.502 215.94 437.83L233.824 434.833L275.34 565.361C276.507 569.03 278.957 572.155 282.242 574.163C285.527 576.171 289.425 576.928 293.223 576.294L356.342 565.716C358.561 565.336 360.675 564.494 362.547 563.245C364.419 561.996 366.008 560.368 367.21 558.465C368.413 556.563 369.202 554.429 369.527 552.202C369.853 549.975 369.706 547.705 369.097 545.538L338.186 437.243L564.149 486.459C566.707 487.009 569.36 486.927 571.88 486.223C574.4 485.518 576.71 484.21 578.612 482.413C580.503 480.609 581.923 478.369 582.748 475.889C583.573 473.409 583.778 470.765 583.345 468.187L528.69 142.069C528.256 139.492 527.198 137.061 525.608 134.988C524.018 132.915 521.945 131.263 519.569 130.176C517.193 129.089 514.587 128.6 511.979 128.753C509.371 128.905 506.84 129.694 504.607 131.05Z" fill="white"/>
</g>
<g clip-path="url(#clip1_4180_26)">
<path d="M647.776 106.917L664.346 113.92C751.281 150.659 792.611 252.487 755.872 339.422L748.87 355.992C746.936 360.568 749.077 365.844 753.653 367.778L770.223 374.78C774.799 376.714 780.075 374.572 782.009 369.996L789.011 353.427C833.484 248.189 783.588 125.254 678.35 80.7807L661.781 73.7785C657.205 71.8447 651.929 73.9861 649.995 78.5621L642.993 95.1315C641.059 99.7074 643.2 104.984 647.776 106.917Z" fill="white"/>
<path d="M706.358 14.5034L689.789 7.50113C685.213 5.56734 679.937 7.7088 678.003 12.2847L671.001 28.8542C669.067 33.4301 671.208 38.7062 675.784 40.64L692.354 47.6423C815.893 99.8502 874.356 243.892 822.149 367.432L815.146 384.001C813.212 388.577 815.354 393.853 819.93 395.787L836.499 402.789C841.075 404.723 846.351 402.582 848.285 398.006L855.287 381.436C915.23 239.595 848.199 74.4455 706.358 14.5034Z" fill="white"/>
</g>
<path d="M684.672 225.635C679.425 216.975 673.59 209.479 670.578 205.782C670.378 205.538 670.127 205.341 669.843 205.205C669.558 205.07 669.246 205 668.931 205C668.616 205 668.305 205.07 668.02 205.206C667.735 205.341 667.484 205.538 667.285 205.782C664.273 209.481 658.437 216.979 653.19 225.64C646.429 236.802 643 246.031 643 253.069C643 267.367 654.633 279 668.931 279C683.23 279 694.862 267.367 694.862 253.069C694.862 246.026 691.434 236.796 684.672 225.635ZM672.49 269.449C670.963 269.838 669.393 270.034 667.817 270.032C658.129 270.032 650.248 262.711 650.248 253.711C650.248 251.538 650.821 249 651.951 246.166C652.142 245.688 652.686 245.415 653.222 245.53C653.758 245.646 654.118 246.113 654.063 246.621C653.998 247.207 653.965 247.795 653.963 248.385C653.963 258.178 661.855 266.38 672.32 267.461C672.841 267.515 673.247 267.904 673.289 268.39C673.33 268.875 672.995 269.32 672.49 269.449Z" fill="white"/>
<g clip-path="url(#clip2_4180_26)">
<path d="M707.101 350.937C706.916 350.757 706.687 350.629 706.436 350.567C706.186 350.504 705.924 350.509 705.676 350.581L687.332 355.917L683.572 331.525C683.514 331.201 683.348 330.906 683.102 330.687C682.855 330.469 682.542 330.34 682.214 330.321C681.885 330.302 681.559 330.394 681.289 330.583C681.019 330.771 680.821 331.045 680.725 331.36L669.786 376.932C669.717 377.182 669.716 377.446 669.783 377.697C669.851 377.947 669.983 378.176 670.168 378.358C670.353 378.54 670.583 378.669 670.834 378.733C671.086 378.796 671.35 378.792 671.599 378.719L689.669 373.463L694.077 397.705C694.144 398.026 694.317 398.314 694.567 398.525C694.817 398.736 695.131 398.858 695.458 398.87C695.785 398.882 696.107 398.785 696.372 398.593C696.637 398.402 696.831 398.127 696.922 397.812L707.494 352.352C707.56 352.102 707.558 351.84 707.488 351.591C707.419 351.343 707.286 351.117 707.101 350.937Z" fill="white"/>
</g>
<g clip-path="url(#clip3_4180_26)">
<path d="M732.132 453.941L709.962 442.536C708.927 442 707.795 441.673 706.633 441.576C705.47 441.478 704.3 441.611 703.189 441.967C702.079 442.323 701.049 442.895 700.161 443.651C699.272 444.406 698.541 445.33 698.01 446.369L673.651 493.72C671.4 498.097 673.179 503.458 677.483 505.672L699.653 517.077C700.688 517.613 701.82 517.94 702.982 518.038C704.145 518.135 705.315 518.002 706.426 517.646C707.536 517.29 708.566 516.718 709.454 515.962C710.343 515.207 711.074 514.283 711.605 513.245L735.964 465.893C736.5 464.857 736.827 463.726 736.925 462.563C737.022 461.401 736.889 460.231 736.533 459.12C736.177 458.009 735.605 456.98 734.849 456.091C734.094 455.202 733.17 454.472 732.132 453.941ZM691.224 506.299C689.216 505.266 688.449 502.875 689.483 500.866C690.516 498.858 692.906 498.091 694.915 499.125C696.924 500.158 697.69 502.548 696.657 504.557C695.624 506.566 693.233 507.332 691.224 506.299ZM712.225 503.22L681.446 487.387L700.232 450.869L731.011 466.702L712.225 503.22Z" fill="white"/>
</g>
<path d="M285.539 641.999C291.417 644.878 295.799 648.745 298.685 653.6C301.572 658.455 302.965 663.878 302.865 669.869C302.766 675.86 301.183 681.985 298.118 688.244C294.999 694.612 291.076 699.659 286.35 703.384C281.584 707.124 276.418 709.335 270.854 710.017C265.249 710.714 259.616 709.677 253.955 706.904C249.547 704.745 245.973 701.983 243.235 698.617C240.496 695.252 238.718 691.546 237.898 687.501C237.079 683.456 237.357 679.34 238.731 675.155L248.365 679.873C247.701 683.09 248.094 686.421 249.546 689.865C250.957 693.322 253.785 696.091 258.03 698.17C261.786 700.009 265.559 700.642 269.349 700.069C273.098 699.509 276.628 697.847 279.939 695.082C283.21 692.331 286.005 688.588 288.324 683.853C290.696 679.008 292 674.417 292.235 670.078C292.443 665.726 291.632 661.871 289.802 658.511C287.944 655.138 285.111 652.519 281.301 650.653C278.797 649.427 276.311 648.749 273.844 648.621C271.376 648.492 269.035 648.898 266.82 649.837C264.605 650.777 262.639 652.244 260.92 654.236L251.286 649.518C253.643 646.084 256.623 643.41 260.226 641.496C263.788 639.597 267.751 638.636 272.114 638.613C276.437 638.604 280.912 639.733 285.539 641.999Z" fill="white"/>
<path d="M225.397 601.754C230.147 605.898 233.328 610.664 234.941 616.052C236.531 621.42 236.557 627.013 235.021 632.831C233.462 638.629 230.311 644.245 225.57 649.68C220.789 655.16 215.622 659.077 210.07 661.432C204.494 663.766 198.94 664.51 193.405 663.662C187.848 662.796 182.694 660.29 177.945 656.147C173.195 652.003 170.025 647.247 168.435 641.879C166.823 636.491 166.806 630.886 168.385 625.066C169.941 619.225 173.11 613.565 177.891 608.084C182.632 602.65 187.781 598.777 193.336 596.465C198.869 594.134 204.414 593.401 209.971 594.268C215.505 595.115 220.647 597.611 225.397 601.754ZM219.062 609.016C215.454 605.868 211.679 604.203 207.736 604.021C203.793 603.839 199.948 604.767 196.199 606.805C192.451 608.843 189.043 611.62 185.975 615.136C182.907 618.653 180.608 622.418 179.077 626.431C177.546 630.444 177.129 634.403 177.825 638.307C178.52 642.212 180.672 645.738 184.28 648.885C187.888 652.033 191.673 653.686 195.636 653.846C199.598 654.005 203.464 653.055 207.232 650.994C211.001 648.933 214.419 646.144 217.487 642.628C220.554 639.111 222.844 635.358 224.354 631.367C225.865 627.377 226.263 623.441 225.547 619.559C224.832 615.678 222.67 612.163 219.062 609.016Z" fill="white"/>
<path d="M187.573 570.068L127.178 605.097L121.978 596.132L131.415 590.659L130.959 589.872C127.005 590.484 123.323 589.905 119.914 588.134C116.479 586.378 113.621 583.534 111.34 579.602C109.029 575.617 108.01 571.777 108.284 568.08C108.515 564.373 109.81 560.837 112.168 557.473L111.803 556.844C107.786 557.106 103.964 556.223 100.335 554.194C96.6797 552.18 93.5978 549.011 91.0893 544.686C87.9574 539.286 87.0864 533.888 88.4763 528.493C89.84 523.113 94.0737 518.363 101.177 514.243L141.598 490.8L146.98 500.079L106.559 523.523C102.103 526.107 99.6252 529.173 99.1256 532.721C98.6259 536.269 99.3339 539.694 101.25 542.997C103.712 547.243 106.905 549.788 110.827 550.631C114.723 551.489 118.623 550.786 122.529 548.521L161.849 525.716L167.322 535.152L125.958 559.143C122.524 561.135 120.404 563.853 119.6 567.297C118.769 570.757 119.372 574.243 121.409 577.756C122.808 580.167 124.757 582.049 127.258 583.401C129.744 584.727 132.499 585.371 135.525 585.333C138.509 585.283 141.482 584.4 144.444 582.682L182.191 560.789L187.573 570.068Z" fill="white"/>
<path d="M100.108 432.84L59.6664 441.081L57.5246 430.569L125.937 416.63L128.079 427.141L116.499 429.501L116.644 430.213C120.445 431.109 123.907 433.001 127.032 435.89C130.127 438.785 132.2 442.816 133.253 447.982C134.124 452.258 133.963 456.249 132.77 459.956C131.548 463.669 129.23 466.863 125.816 469.538C122.373 472.218 117.741 474.152 111.922 475.337L68.4511 484.195L66.3093 473.683L109.067 464.971C114.056 463.955 117.75 461.749 120.151 458.353C122.545 454.927 123.298 451.031 122.408 446.667C121.876 444.054 120.666 441.532 118.78 439.102C116.887 436.643 114.372 434.774 111.236 433.496C108.093 432.188 104.384 431.969 100.108 432.84Z" fill="white"/>
<path d="M83.1248 381.914L125.043 384.542L124.371 395.248L54.69 390.88L55.3384 380.537L66.2261 381.219L66.283 380.312C62.8468 378.457 60.1594 375.799 58.2207 372.337C56.2517 368.874 55.4321 364.511 55.762 359.249C56.0578 354.531 57.2844 350.463 59.4418 347.046C61.569 343.627 64.6449 341.057 68.6696 339.336C72.664 337.612 77.6251 336.937 83.5529 337.308L127.83 340.084L127.158 350.79L83.6075 348.06C78.1334 347.717 73.78 348.871 70.5471 351.522C67.2841 354.172 65.4971 357.977 65.1861 362.937C64.9719 366.354 65.5214 369.455 66.8346 372.24C68.1496 374.994 70.1803 377.232 72.9265 378.952C75.6727 380.673 79.0722 381.66 83.1248 381.914Z" fill="white"/>
<path d="M133.33 318.852L65.7476 301.327L68.4402 290.943L136.023 308.468L133.33 318.852ZM55.8529 293.126C55.3281 295.15 54.1861 296.717 52.4272 297.826C50.6758 298.906 48.8322 299.194 46.8962 298.692C44.9602 298.19 43.4893 297.042 42.4833 295.247C41.485 293.423 41.2483 291.499 41.7731 289.475C42.298 287.451 43.4361 285.899 45.1874 284.819C46.9464 283.71 48.7939 283.407 50.7298 283.909C52.6658 284.411 54.1329 285.574 55.1313 287.398C56.1372 289.193 56.3777 291.102 55.8529 293.126Z" fill="white"/>
<path d="M117.612 231.797L126.749 235.861L110.199 273.074L101.062 269.01L117.612 231.797Z" fill="white"/>
<path d="M169.542 231.985L112.365 191.917L118.313 183.43L126.949 189.482L127.366 188.886C125.268 185.862 124.294 182.367 124.445 178.402C124.596 174.438 125.871 170.743 128.271 167.319C128.723 166.673 129.301 165.876 130.004 164.925C130.707 163.975 131.257 163.269 131.655 162.807L140.588 169.068C140.305 169.313 139.715 169.918 138.819 170.88C137.915 171.801 137.054 172.844 136.237 174.011C134.289 176.79 133.133 179.68 132.769 182.682C132.397 185.641 132.786 188.466 133.934 191.158C135.074 193.807 136.935 196.036 139.516 197.845L175.698 223.2L169.542 231.985Z" fill="white"/>
<path d="M221.402 173.058C216.436 177.596 211.151 180.415 205.546 181.514C199.943 182.57 194.359 182.008 188.795 179.827C183.232 177.603 178.039 173.852 173.215 168.573C168.39 163.294 165.1 157.762 163.344 151.977C161.59 146.15 161.414 140.522 162.817 135.095C164.221 129.624 167.25 124.763 171.903 120.51C174.587 118.057 177.647 116.082 181.082 114.585C184.517 113.088 188.228 112.365 192.215 112.416C196.182 112.444 200.305 113.52 204.585 115.643C208.865 117.766 213.203 121.232 217.598 126.042L220.664 129.397L180.937 165.703L174.681 158.858L206.356 129.911C203.699 127.003 200.746 124.94 197.497 123.721C194.271 122.482 190.993 122.174 187.662 122.796C184.353 123.398 181.267 125.007 178.404 127.624C175.249 130.506 173.236 133.783 172.363 137.455C171.492 141.083 171.576 144.701 172.614 148.308C173.653 151.916 175.471 155.14 178.067 157.981L182.237 162.544C185.794 166.436 189.48 169.122 193.296 170.603C197.114 172.04 200.874 172.359 204.578 171.561C208.262 170.74 211.703 168.868 214.901 165.945C216.982 164.043 218.595 162.035 219.741 159.921C220.889 157.763 221.537 155.529 221.684 153.219C221.81 150.887 221.391 148.52 220.427 146.117L230.039 141.273C231.605 144.604 232.337 148.122 232.235 151.828C232.112 155.512 231.153 159.179 229.359 162.831C227.544 166.46 224.892 169.869 221.402 173.058Z" fill="white"/>
<path d="M280.709 131.721C275.518 134.348 270.271 135.357 264.969 134.746C259.654 134.108 254.656 131.951 249.976 128.274C245.282 124.57 241.266 119.42 237.926 112.823C234.615 106.28 232.863 100.035 232.671 94.0861C232.479 88.1377 233.72 82.8395 236.394 78.1915C239.068 73.5435 243.027 69.8921 248.272 67.2371C252.328 65.1843 255.874 64.2385 258.91 64.3997C261.96 64.5202 264.538 65.1173 266.644 66.1911C268.763 67.2242 270.448 68.1036 271.698 68.8292L272.509 68.4187L256.99 37.759L266.561 32.9144L308.603 115.971L299.356 120.652L294.511 111.081L293.376 111.655C293.248 113.147 292.973 115.086 292.551 117.473C292.115 119.834 291.036 122.299 289.314 124.868C287.579 127.411 284.71 129.695 280.709 131.721ZM277.655 122.466C281.494 120.523 284.232 117.88 285.869 114.538C287.492 111.169 288.09 107.352 287.662 103.085C287.221 98.7909 285.81 94.2918 283.428 89.5874C281.074 84.9371 278.339 81.2102 275.222 78.4067C272.091 75.5762 268.708 73.8582 265.073 73.2527C261.424 72.6202 257.653 73.2893 253.76 75.26C249.704 77.3128 246.852 80.0644 245.202 83.5147C243.565 86.9244 242.967 90.7422 243.408 94.9683C243.863 99.1537 245.198 103.436 247.415 107.816C249.66 112.25 252.375 115.937 255.56 118.875C258.759 121.773 262.238 123.613 265.996 124.394C269.767 125.134 273.653 124.492 277.655 122.466Z" fill="white"/>
<defs>
<clipPath id="clip0_4180_26">
<rect width="512" height="512" fill="white" transform="translate(157 93)"/>
</clipPath>
<clipPath id="clip1_4180_26">
<rect width="307" height="307" fill="white" transform="translate(681.504 4) rotate(22.9089)"/>
</clipPath>
<clipPath id="clip2_4180_26">
<rect width="70" height="70" fill="white" transform="translate(641 351.234) rotate(-29.2782)"/>
</clipPath>
<clipPath id="clip3_4180_26">
<rect width="71" height="71" fill="white" transform="translate(689.48 432) rotate(27.2226)"/>
</clipPath>
</defs>
</svg>
