<svg width="371" height="261" viewBox="0 0 371 261" fill="none" xmlns="http://www.w3.org/2000/svg">
<path d="M338.393 0H32.6074C14.6646 0 0 14.6002 0 32.6074V228.252C0 246.266 14.6741 260.859 32.6074 260.859H338.393C356.335 260.859 371 246.259 371 228.252V32.6074C371 14.5958 356.328 0 338.393 0ZM333.386 21.7383L193.923 161.656C189.674 165.918 181.328 165.921 177.077 161.656L37.6145 21.7383H333.386ZM21.7383 224.256V36.6036L115.26 130.43L21.7383 224.256ZM37.6145 239.121L130.606 145.826L161.681 177.003C174.416 189.778 196.589 189.773 209.319 177.003L240.394 145.827L333.386 239.121H37.6145ZM349.262 224.256L255.74 130.43L349.262 36.6036V224.256Z" fill="#373737"/>
</svg>
