<svg width="512" height="512" viewBox="0 0 512 512" fill="none" xmlns="http://www.w3.org/2000/svg">
<path d="M411.002 262.862V215C411.002 145.178 364.591 85.999 301.002 66.67V45C301.002 20.187 280.815 0 256.002 0C231.189 0 211.002 20.187 211.002 45V66.67C147.412 85.999 101.002 145.177 101.002 215V262.862C101.002 324.194 77.6238 382.35 35.1748 426.618C33.1395 428.74 31.7726 431.413 31.2442 434.305C30.7158 437.198 31.0491 440.182 32.2027 442.886C33.3563 445.59 35.2794 447.896 37.7327 449.517C40.1861 451.137 43.0616 452.001 46.0018 452H182.511C189.479 486.192 219.783 512 256.002 512C292.222 512 322.524 486.192 329.493 452H466.002C468.942 452 471.817 451.136 474.27 449.516C476.723 447.895 478.646 445.59 479.799 442.885C480.953 440.181 481.286 437.198 480.758 434.305C480.23 431.413 478.864 428.74 476.829 426.618C434.38 382.35 411.002 324.193 411.002 262.862ZM241.002 45C241.002 36.729 247.731 30 256.002 30C264.273 30 271.002 36.729 271.002 45V60.728C266.065 60.252 261.062 60 256.002 60C250.942 60 245.939 60.252 241.002 60.728V45ZM256.002 482C236.447 482 219.774 469.459 213.582 452H298.422C292.23 469.459 275.557 482 256.002 482ZM78.3318 422C112.493 376.208 131.002 320.792 131.002 262.862V215C131.002 146.075 187.077 90 256.002 90C324.927 90 381.002 146.075 381.002 215V262.862C381.002 320.792 399.511 376.208 433.673 422H78.3318ZM451.002 215C451.002 223.284 457.718 230 466.002 230C474.286 230 481.002 223.284 481.002 215C481.002 154.9 457.598 98.397 415.101 55.9C409.244 50.043 399.746 50.042 393.888 55.9C388.03 61.758 388.03 71.255 393.888 77.113C430.719 113.944 451.002 162.913 451.002 215ZM46.0018 230C54.2858 230 61.0018 223.284 61.0018 215C61.0018 162.914 81.2858 113.945 118.116 77.114C123.974 71.256 123.974 61.759 118.116 55.901C112.259 50.043 102.761 50.043 96.9028 55.901C54.4058 98.398 31.0018 154.9 31.0018 215C31.0018 223.284 37.7178 230 46.0018 230Z" fill="#373737"/>
</svg>
