<svg width="512" height="512" viewBox="0 0 512 512" fill="none" xmlns="http://www.w3.org/2000/svg">
<path d="M469 232.149C463.342 232.149 457.916 229.902 453.915 225.901C449.914 221.9 447.667 216.474 447.667 210.816C447.667 150.976 424.371 94.7413 382.067 52.416C378.066 48.4158 375.819 42.9904 375.819 37.3333C375.819 31.6762 378.066 26.2508 382.067 22.2507C386.067 18.2505 391.492 16.0032 397.149 16.0032C402.806 16.0032 408.232 18.2505 412.232 22.2507C437.072 46.9559 456.765 76.3427 470.171 108.71C483.577 141.077 490.43 175.782 490.333 210.816C490.333 216.474 488.086 221.9 484.085 225.901C480.084 229.902 474.658 232.149 469 232.149ZM42.3333 232.149C36.6754 232.149 31.2492 229.902 27.2484 225.901C23.2476 221.9 21 216.474 21 210.816C21 139.584 48.7333 72.6187 99.1013 22.2507C103.102 18.2505 108.527 16.0032 114.184 16.0032C119.841 16.0032 125.266 18.2505 129.267 22.2507C133.267 26.2508 135.514 31.6762 135.514 37.3333C135.514 42.9904 133.267 48.4158 129.267 52.416C108.402 73.17 91.8614 97.8561 80.6011 125.045C69.3409 152.235 63.585 181.387 63.6667 210.816C63.6667 216.474 61.4191 221.9 57.4183 225.901C53.4175 229.902 47.9913 232.149 42.3333 232.149ZM455.752 360.811C439.838 347.385 427.05 330.643 418.283 311.758C409.516 292.872 404.983 272.299 405 251.477V192C405 116.928 349.235 54.784 277 44.3733V21.3333C277 15.6754 274.752 10.2492 270.752 6.24839C266.751 2.24761 261.325 0 255.667 0C250.009 0 244.583 2.24761 240.582 6.24839C236.581 10.2492 234.333 15.6754 234.333 21.3333V44.3733C162.077 54.784 106.333 116.928 106.333 192V251.477C106.342 272.341 101.786 292.953 92.9853 311.87C84.1849 330.786 71.353 347.549 55.3893 360.981C49.6199 365.955 45.5078 372.572 43.6036 379.947C41.6995 387.323 42.0941 395.104 44.7348 402.248C47.3755 409.393 52.1362 415.56 58.3792 419.924C64.6222 424.289 72.0496 426.641 79.6667 426.667H431.667C452.253 426.667 469 409.92 469 389.333C469 378.411 464.243 368.085 455.752 360.811ZM255.667 512C274.099 511.975 291.959 505.596 306.237 493.937C320.514 482.279 330.335 466.055 334.045 448H177.288C180.998 466.055 190.819 482.279 205.097 493.937C219.374 505.596 237.234 511.975 255.667 512Z" fill="white"/>
</svg>
