<svg width="95" height="68" viewBox="0 0 95 68" fill="none" xmlns="http://www.w3.org/2000/svg">
<path d="M77.2978 61.3356L16.9907 1.03028L16.9778 1.01554C16.6513 0.691705 16.2642 0.435346 15.8386 0.261104C15.413 0.0868622 14.9573 -0.00185186 14.4975 2.93016e-05C14.0376 0.00191046 13.5826 0.0943501 13.1585 0.272068C12.7344 0.449786 12.3494 0.709303 12.0255 1.0358C11.7017 1.3623 11.4453 1.74939 11.2711 2.17496C11.0969 2.60053 11.0081 3.05626 11.01 3.51611C11.0138 4.44484 11.3864 5.33402 12.0458 5.98804L17.3259 11.2681C10.9226 15.6536 5.41095 21.2158 1.08421 27.6589C0.377654 28.7021 0 29.9331 0 31.1931C0 32.453 0.377654 33.684 1.08421 34.7272C12.1287 51.0738 29.6374 60.6505 47.1461 60.5308C52.8174 60.5513 58.451 59.6072 63.8058 57.7388L72.353 66.286C73.0115 66.9233 73.8937 67.2768 74.8101 67.2705C75.7265 67.2643 76.6039 66.8988 77.2537 66.2526C77.9035 65.6064 78.2738 64.7311 78.2852 63.8148C78.2966 62.8985 77.948 62.0142 77.3144 61.3522L77.2978 61.3356ZM47.1461 51.0259C43.8289 51.0247 40.5649 50.1922 37.6523 48.6044C34.7398 47.0165 32.2717 44.7241 30.4735 41.9366C28.6752 39.1491 27.6043 35.9553 27.3585 32.6472C27.1127 29.3391 27.6999 26.0222 29.0665 22.9995L34.5822 28.5153C34.138 30.6089 34.2238 32.7803 34.832 34.8323C35.4402 36.8843 36.5514 38.7518 38.0648 40.2651C39.5782 41.7785 41.4457 42.8897 43.4977 43.4979C45.5496 44.1061 47.7211 44.192 49.8147 43.7477L55.3304 49.2635C52.7596 50.4291 49.9688 51.0301 47.1461 51.0259ZM93.208 27.6497C82.1635 11.2939 64.6548 1.71722 47.1461 1.83693C41.4747 1.81638 35.8412 2.7605 30.4864 4.62889L38.958 13.1005C42.6342 11.4369 46.73 10.9332 50.6997 11.6564C54.6693 12.3797 58.3243 14.2956 61.1775 17.1487C64.0307 20.0019 65.9466 23.6569 66.6698 27.6266C67.3931 31.5963 66.8893 35.6921 65.2257 39.3682L76.9645 51.107C83.3688 46.7222 88.8812 41.1599 93.208 34.7162C93.9141 33.6732 94.2916 32.4425 94.2916 31.1829C94.2916 29.9234 93.9141 28.6927 93.208 27.6497Z" fill="white"/>
<path d="M47.1451 18.3438C46.2483 18.3439 45.3539 18.4377 44.4766 18.6237L59.709 33.8543C60.1062 31.9829 60.0803 30.0465 59.6333 28.1865C59.1864 26.3265 58.3295 24.5897 57.1254 23.1032C55.9213 21.6167 54.4004 20.418 52.6737 19.5945C50.947 18.7711 49.0581 18.3438 47.1451 18.3438Z" fill="white"/>
</svg>
