<svg width="220" height="220" viewBox="0 0 220 220" fill="none" xmlns="http://www.w3.org/2000/svg">
<g clip-path="url(#clip0_4097_25)">
<path d="M110.001 144.059C79.2814 144.059 54.2891 169.051 54.2891 199.77C54.2891 201.548 54.3763 203.305 54.5409 205.039C71.1895 214.792 90.1929 219.999 110.001 219.999C129.808 219.999 148.812 214.792 165.46 205.039C165.625 203.303 165.712 201.548 165.712 199.77C165.712 169.051 140.72 144.059 110.001 144.059Z" fill="white"/>
<path d="M187.782 32.218C167.006 11.4426 139.383 0 110 0C80.6167 0 52.9942 11.4421 32.218 32.218C11.4426 52.9942 0 80.6167 0 110C0 139.382 11.4421 167.006 32.218 187.782C35.1546 190.717 38.2529 193.486 41.4984 196.075C42.9404 169.065 60.0772 146.156 83.9317 136.32C70.8194 127.771 62.1337 112.979 62.1337 96.1929C62.1337 69.7989 83.606 48.3265 110 48.3265C136.394 48.3265 157.866 69.7989 157.866 96.1929C157.866 112.979 149.181 127.771 136.068 136.32C159.923 146.156 177.06 169.065 178.502 196.075C181.747 193.485 184.845 190.717 187.782 187.782C208.557 167.006 220 139.382 220 110C220 80.6167 208.558 52.9942 187.782 32.218Z" fill="white"/>
<path d="M144.975 96.1945C144.975 76.9071 129.285 61.2188 109.999 61.2188C90.7135 61.2188 75.0234 76.9088 75.0234 96.1945C75.0234 115.48 90.7135 131.171 109.999 131.171C129.285 131.171 144.975 115.48 144.975 96.1945Z" fill="white"/>
</g>
<defs>
<clipPath id="clip0_4097_25">
<rect width="220" height="220" fill="white"/>
</clipPath>
</defs>
</svg>
