<svg width="280" height="280" viewBox="0 0 280 280" fill="none" xmlns="http://www.w3.org/2000/svg">
<path d="M112.691 225.264C137.718 225.265 162.029 216.915 181.773 201.536L256.262 276.025C261.827 281.399 270.694 281.245 276.068 275.681C281.31 270.253 281.31 261.647 276.068 256.22L201.579 181.731C239.739 132.608 230.853 61.8507 181.73 23.6901C132.607 -14.4705 61.8507 -5.58419 23.6901 43.5388C-14.4705 92.6618 -5.5842 163.419 43.5388 201.579C63.3153 216.943 87.6483 225.277 112.691 225.264ZM52.84 52.797C85.8953 19.7411 139.488 19.7405 172.544 52.7957C205.6 85.851 205.601 139.444 172.545 172.5C139.49 205.556 85.8971 205.556 52.8413 172.501L52.84 172.5C19.7848 139.686 19.5901 86.2878 52.4044 53.2326L52.84 52.797Z" fill="white"/>
</svg>
