<svg width="223" height="223" viewBox="0 0 223 223" fill="none" xmlns="http://www.w3.org/2000/svg">
<g clip-path="url(#clip0_4097_20)">
<path d="M218.641 197.609L161.822 140.792C172.6 125.746 178.397 107.702 178.398 89.1938C178.398 40.0034 138.392 0 89.1988 0C40.0057 0 0 40.0034 0 89.1938C0 138.384 40.0057 178.388 89.1988 178.388C108.436 178.388 126.216 172.204 140.8 161.813L197.62 218.629C198.997 220.014 200.635 221.114 202.439 221.864C204.243 222.614 206.177 223 208.131 223C210.084 223 212.018 222.614 213.822 221.864C215.626 221.114 217.264 220.014 218.641 218.629C220.023 217.25 221.119 215.611 221.867 213.808C222.615 212.005 223 210.071 223 208.119C223 206.167 222.615 204.233 221.867 202.43C221.119 200.627 220.023 198.988 218.641 197.609Z" fill="white"/>
</g>
<defs>
<clipPath id="clip0_4097_20">
<rect width="223" height="223" fill="white"/>
</clipPath>
</defs>
</svg>
