<svg width="184" height="184" viewBox="0 0 184 184" fill="none" xmlns="http://www.w3.org/2000/svg">
<path d="M57.5531 148.907C55.807 147.105 54.5775 144.867 53.9939 142.428C53.4104 139.989 53.4942 137.44 54.2366 135.047L66.5516 92.8455C66.8499 91.8964 66.8489 90.878 66.5489 89.9283L53.9394 47.9177C53.145 45.2416 53.1563 42.3922 53.9719 39.7255C54.7875 37.0589 56.3713 34.6931 58.5253 32.9239C60.6794 31.1547 63.3082 30.0604 66.0834 29.7777C68.8586 29.4951 71.6572 30.0366 74.1294 31.3347L168.982 78.7859C171.415 79.9471 173.47 81.773 174.909 84.052C176.349 86.3311 177.115 88.9701 177.117 91.6635C177.12 94.3569 176.359 96.9944 174.924 99.2707C173.489 101.547 171.437 103.369 169.007 104.526L74.0291 151.668C71.5749 152.92 68.8045 153.419 66.0647 153.104C63.3249 152.789 60.7376 151.672 58.6265 149.894L57.5531 148.907ZM164.7 86.7611L69.847 39.31C68.951 38.8493 67.9391 38.6641 66.9391 38.7777C65.939 38.8912 64.9956 39.2985 64.2277 39.9481C63.4634 40.5843 62.9052 41.4331 62.6236 42.3872C62.342 43.3414 62.3496 44.3582 62.6456 45.3091L75.255 87.3197C76.0725 89.9764 76.0752 92.8155 75.2628 95.4706L62.6042 137.329C62.3101 138.279 62.3044 139.296 62.5878 140.25C62.8712 141.205 63.431 142.055 64.1966 142.693C64.9657 143.344 65.9099 143.753 66.9102 143.868C67.9104 143.984 68.9219 143.8 69.8171 143.341L164.709 96.1991C165.646 95.8176 166.448 95.1652 167.013 94.3252C167.577 93.4853 167.877 92.4958 167.876 91.4831C167.876 90.4704 167.573 89.4803 167.007 88.6393C166.441 87.7983 165.638 87.1444 164.7 86.7611Z" fill="white"/>
<path d="M68.1435 94.6076C67.7097 94.1929 67.3671 93.6925 67.1376 93.1382C66.9081 92.584 66.7967 91.9882 66.8106 91.3889C66.8022 90.7895 66.914 90.1948 67.1392 89.6398C67.3645 89.0848 67.6986 88.5807 68.1221 88.1573C68.5455 87.7339 69.0495 87.3997 69.6046 87.1745C70.1596 86.9492 70.7543 86.8375 71.3536 86.8458L172.425 86.7702C173.676 86.7714 174.877 87.2697 175.763 88.1555C176.649 89.0413 177.147 90.2421 177.148 91.4936C177.15 92.7452 176.653 93.945 175.769 94.8291C174.885 95.7132 173.685 96.2093 172.434 96.2081L71.3622 95.9405C70.7644 95.9437 70.1717 95.8274 69.619 95.5985C69.0663 95.3696 68.5646 95.0327 68.1435 94.6076Z" fill="white"/>
</svg>
