<svg width="96" height="479" viewBox="0 0 96 479" fill="none" xmlns="http://www.w3.org/2000/svg">
<path d="M47.8848 191.539C21.5482 191.539 0 213.087 0 239.424C0 265.76 21.5482 287.309 47.8848 287.309C74.2214 287.309 95.7695 265.76 95.7695 239.424C95.7695 213.087 74.2214 191.539 47.8848 191.539ZM47.8848 383.078C21.5482 383.078 0 404.626 0 430.963C0 457.299 21.5482 478.848 47.8848 478.848C74.2214 478.848 95.7695 457.299 95.7695 430.963C95.7695 404.626 74.2214 383.078 47.8848 383.078ZM47.8848 95.7695C74.2214 95.7695 95.7695 74.2214 95.7695 47.8848C95.7695 21.5482 74.2214 0 47.8848 0C21.5482 0 0 21.5482 0 47.8848C0 74.2214 21.5482 95.7695 47.8848 95.7695Z" fill="white"/>
</svg>
