<svg width="112" height="67" viewBox="0 0 112 67" fill="none" xmlns="http://www.w3.org/2000/svg">
<path d="M56 0C34.6012 0 15.1957 11.7491 0.876342 30.8329C-0.292114 32.3964 -0.292114 34.5806 0.876342 36.1441C15.1957 55.2509 34.6012 67 56 67C77.3988 67 96.8043 55.2509 111.124 36.1671C112.292 34.6036 112.292 32.4194 111.124 30.8559C96.8043 11.7491 77.3988 0 56 0ZM57.535 57.0903C43.3303 57.987 31.5999 46.2378 32.4934 31.9595C33.2266 20.1874 42.7346 10.6455 54.465 9.90975C68.6697 9.01304 80.4001 20.7622 79.5066 35.0405C78.7505 46.7896 69.2425 56.3315 57.535 57.0903ZM56.8248 46.1918C49.1725 46.6747 42.8491 40.3518 43.3532 32.6723C43.7427 26.3264 48.8747 21.199 55.1981 20.7852C62.8504 20.3023 69.1738 26.6253 68.6697 34.3047C68.2573 40.6736 63.1253 45.801 56.8248 46.1918Z" fill="white"/>
</svg>
